<svg xmlns="http://www.w3.org/2000/svg" viewBox="0 0 6632 2000" preserveAspectRatio="xMidYMid meet">
<g transform="translate(0,-300) scale(0.663972286374134)">
<g transform="translate(0,3464.0) scale(0.1,-0.1)" fill="#e5e5e5" stroke="none">
<path d="M23665 29599 c-3177 -8 -4359 -19 -5295 -49 -162 -5 -475 -14 -695 -20 -1146 -29 -1403 -38 -2010 -70 -104 -6 -348 -15 -542 -20 -194 -6 -482 -17 -640 -25 -158 -8 -335 -17 -393 -20 -58 -3 -262 -10 -455 -15 -475 -13 -544 -19 -567 -42 -24 -24 -10 -54 29 -62 16 -3 224 -10 463 -16 239 -5 505 -16 590 -25 150 -14 406 -24 1180 -45 335 -10 526 -21 810 -50 158 -15 473 -28 990 -40 256 -6 632 -17 835 -25 677 -26 1004 -35 1680 -45 687 -11 1303 -22 2130 -40 259 -5 796 -14 1195 -20 399 -6 1033 -15 1410 -20 772 -11 1184 -15 3570 -30 2280 -15 2514 -22 2825 -85 66 -14 172 -30 235 -36 63 -5 169 -22 235 -35 66 -14 169 -34 230 -44 60 -11 146 -30 190 -44 44 -14 116 -32 159 -41 73 -13 126 -29 341 -100 169 -55 202 -67 265 -95 36 -16 85 -34 110 -40 25 -7 68 -24 95 -40 28 -15 68 -33 90 -40 22 -7 60 -25 85 -40 25 -16 71 -38 102 -50 32 -12 60 -26 64 -31 3 -5 36 -25 72 -45 37 -19 95 -52 129 -72 34 -20 83 -50 110 -66 26 -16 57 -35 68 -42 11 -8 71 -48 132 -89 62 -42 116 -82 120 -89 5 -7 27 -25 51 -41 23 -15 42 -31 42 -35 0 -4 19 -20 43 -35 109 -73 329 -288 452 -444 28 -35 68 -85 90 -111 86 -102 181 -226 200 -260 11 -20 30 -50 43 -66 35 -44 112 -162 112 -171 0 -4 15 -29 34 -56 18 -26 40 -62 47 -80 7 -17 25 -51 41 -74 15 -23 28 -45 28 -50 0 -7 19 -48 131 -278 21 -44 41 -93 45 -110 4 -16 19 -55 34 -85 15 -30 32 -77 39 -105 7 -27 25 -77 41 -110 16 -33 36 -94 45 -137 8 -42 25 -102 36 -135 11 -32 33 -123 50 -203 16 -80 36 -165 44 -190 8 -25 21 -90 30 -145 8 -55 26 -147 40 -205 13 -58 31 -175 39 -260 8 -85 24 -193 35 -240 31 -131 41 -322 41 -830 0 -483 -10 -673 -49 -995 -11 -88 -27 -236 -36 -330 -9 -93 -27 -219 -40 -280 -14 -60 -32 -148 -40 -195 -9 -47 -25 -112 -35 -145 -11 -33 -29 -105 -41 -160 -12 -55 -31 -127 -44 -161 -13 -33 -28 -87 -35 -120 -7 -32 -23 -88 -37 -124 -13 -36 -35 -105 -49 -155 -14 -49 -32 -101 -40 -113 -9 -13 -22 -47 -31 -75 -8 -29 -27 -74 -43 -102 -15 -27 -33 -68 -40 -90 -15 -47 -103 -216 -135 -260 -12 -16 -28 -44 -34 -62 -7 -18 -20 -38 -28 -45 -8 -6 -25 -32 -39 -57 -13 -25 -48 -84 -79 -131 -30 -47 -67 -110 -81 -140 -14 -30 -35 -65 -47 -78 -11 -12 -30 -37 -41 -56 -41 -66 -93 -132 -176 -226 -115 -128 -359 -370 -444 -439 -38 -31 -90 -73 -115 -93 -25 -21 -73 -57 -105 -80 -33 -24 -82 -60 -110 -80 -28 -20 -71 -49 -96 -64 -25 -15 -54 -35 -65 -44 -11 -10 -36 -25 -55 -35 -19 -9 -57 -32 -85 -50 -69 -45 -110 -69 -180 -106 -33 -17 -67 -37 -76 -45 -8 -8 -44 -26 -80 -40 -35 -14 -75 -34 -89 -44 -14 -9 -51 -27 -83 -39 -31 -11 -79 -32 -105 -45 -26 -13 -74 -31 -106 -40 -33 -10 -80 -28 -105 -41 -25 -13 -75 -31 -111 -39 -36 -8 -95 -26 -132 -40 -36 -14 -97 -32 -135 -41 -37 -9 -95 -26 -128 -40 -33 -13 -89 -29 -125 -35 -36 -7 -99 -22 -140 -35 -41 -12 -120 -30 -175 -40 -55 -9 -156 -31 -224 -47 -68 -16 -187 -36 -265 -43 -78 -8 -190 -24 -251 -35 -244 -46 -1209 -59 -4535 -61 -1394 -1 -2462 -5 -2472 -10 -27 -14 -35 -65 -30 -185 2 -62 0 -133 -7 -162 -13 -62 -1 -96 38 -111 38 -14 1123 -30 2171 -31 498 -1 1378 -5 1955 -10 990 -8 1056 -9 1160 -28 85 -16 174 -22 395 -27 240 -5 538 -20 1010 -50 209 -13 356 -28 505 -50 88 -13 219 -29 290 -35 141 -12 190 -19 335 -49 52 -10 143 -24 202 -30 59 -7 142 -21 185 -32 43 -12 148 -34 233 -49 162 -29 431 -94 560 -135 41 -13 104 -33 140 -44 120 -36 245 -81 280 -100 19 -10 69 -31 110 -46 41 -14 86 -33 98 -41 13 -9 48 -24 78 -34 30 -11 67 -28 83 -39 15 -11 52 -30 82 -41 30 -12 61 -28 69 -35 8 -7 38 -24 65 -37 28 -13 70 -38 94 -56 24 -18 49 -32 55 -32 6 0 32 -17 58 -37 25 -21 59 -46 74 -56 27 -16 91 -63 181 -132 91 -70 327 -280 461 -410 135 -131 256 -265 362 -400 25 -32 58 -73 74 -92 17 -19 41 -52 55 -73 14 -21 49 -71 76 -111 54 -77 82 -123 130 -208 17 -29 40 -67 52 -84 12 -18 34 -54 49 -82 14 -27 35 -59 45 -70 10 -11 25 -40 34 -65 9 -24 29 -65 44 -90 16 -25 35 -65 41 -89 6 -24 22 -60 36 -81 13 -20 33 -69 44 -109 11 -40 31 -94 44 -119 12 -26 29 -69 36 -97 7 -27 23 -73 36 -102 13 -29 33 -89 44 -135 12 -45 28 -98 36 -118 8 -19 26 -88 40 -152 13 -64 31 -136 40 -160 8 -24 24 -95 35 -158 11 -63 31 -160 45 -215 13 -55 36 -197 49 -315 14 -118 29 -239 35 -270 27 -159 35 -332 33 -805 -1 -498 -13 -729 -48 -940 -8 -49 -19 -144 -25 -210 -5 -66 -23 -183 -39 -260 -16 -77 -37 -185 -47 -240 -9 -55 -23 -118 -31 -140 -8 -22 -27 -98 -43 -168 -17 -70 -34 -136 -40 -147 -5 -10 -26 -79 -46 -152 -111 -408 -145 -517 -199 -638 -19 -41 -37 -88 -41 -105 -4 -16 -19 -55 -34 -85 -15 -30 -33 -73 -40 -95 -7 -22 -25 -61 -41 -86 -16 -25 -34 -61 -41 -80 -6 -19 -26 -55 -44 -82 -18 -26 -36 -58 -39 -70 -4 -12 -22 -44 -40 -72 -18 -27 -50 -81 -72 -120 -82 -143 -189 -305 -238 -360 -11 -13 -45 -54 -75 -91 -90 -111 -284 -327 -326 -363 -21 -18 -68 -61 -104 -95 -130 -125 -349 -305 -524 -433 -192 -139 -258 -184 -326 -218 -25 -12 -67 -34 -95 -48 -27 -14 -86 -42 -130 -62 -81 -37 -162 -76 -335 -158 -52 -25 -119 -52 -147 -62 -29 -9 -55 -21 -58 -25 -3 -5 -42 -21 -86 -35 -44 -13 -97 -34 -118 -44 -21 -11 -74 -29 -118 -40 -43 -11 -104 -31 -134 -44 -30 -13 -93 -32 -141 -41 -48 -9 -107 -26 -132 -36 -24 -11 -99 -29 -167 -40 -68 -12 -151 -29 -184 -40 -61 -20 -146 -34 -270 -45 -38 -4 -106 -16 -150 -27 -70 -17 -184 -34 -730 -105 -92 -12 -591 -15 -3010 -23 -2427 -7 -2929 -11 -3077 -24 -98 -8 -182 -17 -187 -20 -8 -5 -271 -12 -1726 -46 -253 -6 -516 -15 -585 -20 -360 -26 -617 -34 -1855 -60 -969 -20 -1156 -27 -1175 -46 -19 -19 10 -34 103 -54 137 -28 270 -39 602 -50 329 -11 324 -10 765 -50 179 -16 431 -34 560 -40 129 -6 314 -18 410 -26 415 -34 554 -43 821 -54 318 -12 553 -25 709 -40 248 -24 351 -29 630 -35 527 -10 743 -23 845 -50 50 -13 113 -26 140 -30 51 -6 715 -18 1915 -35 1031 -14 4453 -20 5475 -10 664 7 935 13 1035 24 74 8 194 17 265 21 204 9 382 24 475 39 47 8 135 19 195 25 246 25 402 43 442 51 51 12 206 35 328 50 50 6 155 24 235 40 80 16 198 36 263 45 139 18 467 83 622 125 61 15 139 34 175 40 82 15 256 66 480 142 96 33 213 70 260 82 47 13 103 32 125 43 22 11 75 30 118 42 43 12 100 32 126 46 27 13 70 29 97 36 27 6 72 24 99 39 28 16 70 34 95 40 24 7 75 27 112 46 37 19 73 34 80 34 7 0 42 14 78 31 36 17 89 40 118 50 29 10 65 27 80 37 15 11 54 29 87 41 33 13 67 29 76 37 8 8 44 26 80 40 35 14 71 32 80 40 8 8 44 26 79 40 36 14 74 34 86 43 13 10 44 26 71 36 26 10 62 28 79 41 18 13 51 31 75 40 24 10 66 33 93 51 26 18 52 33 57 33 9 0 124 74 173 112 16 12 56 40 89 62 86 58 136 94 202 146 56 44 106 81 202 149 26 19 62 47 78 62 17 15 86 77 155 137 262 229 847 842 972 1019 23 31 67 92 153 208 24 33 58 86 74 117 17 31 35 59 41 63 6 4 22 30 36 58 15 29 32 59 40 67 13 16 72 118 129 225 17 33 39 74 48 90 9 17 41 86 72 155 31 69 65 141 75 160 10 20 31 69 46 110 15 41 32 84 39 95 7 11 23 54 35 95 12 41 33 96 45 121 13 25 30 79 39 120 8 41 27 106 42 144 22 59 83 313 114 475 5 25 13 108 20 185 6 77 17 178 25 225 31 191 37 345 32 792 -5 433 -12 534 -46 691 -5 23 -19 108 -31 189 -11 81 -31 178 -44 216 -13 37 -29 108 -36 157 -7 50 -23 117 -35 151 -13 34 -31 97 -40 140 -10 43 -28 99 -40 124 -13 25 -32 77 -44 116 -12 40 -28 77 -36 84 -8 6 -24 37 -35 68 -12 32 -33 74 -46 95 -14 22 -31 55 -39 75 -7 21 -28 63 -46 94 -19 31 -54 93 -79 138 -25 44 -58 103 -75 130 -16 27 -43 70 -58 97 -69 119 -152 244 -220 329 -17 22 -51 65 -74 95 -23 30 -73 88 -113 129 -39 41 -122 131 -184 200 -153 168 -356 358 -486 455 -104 77 -159 121 -261 209 -164 142 -227 190 -334 256 -27 17 -71 45 -97 63 -26 18 -77 50 -113 72 -37 22 -88 54 -115 72 -26 17 -65 39 -86 48 -21 9 -48 24 -59 34 -11 11 -42 31 -70 45 -27 15 -84 49 -125 76 -41 28 -100 62 -130 77 -30 14 -68 37 -83 50 -16 12 -34 23 -40 23 -7 0 -59 23 -117 51 -58 28 -143 69 -190 91 -47 22 -112 53 -145 69 -33 16 -89 40 -125 55 -36 14 -92 37 -125 50 -33 14 -87 38 -120 54 -33 16 -82 34 -110 41 -27 7 -70 22 -95 34 -25 13 -78 32 -118 44 -40 12 -87 31 -105 41 -18 11 -61 27 -97 36 -36 9 -94 29 -130 44 -36 16 -93 33 -127 40 -35 6 -93 22 -130 36 -38 14 -116 36 -175 49 -59 14 -120 31 -136 39 -16 8 -74 24 -130 35 -56 11 -127 31 -159 45 -32 13 -86 29 -119 35 -34 6 -100 24 -147 40 -47 16 -112 35 -144 41 -32 6 -98 24 -148 40 -49 15 -124 33 -165 40 -41 6 -102 20 -135 30 -33 10 -94 26 -135 35 -41 9 -140 32 -220 51 -80 18 -205 40 -278 49 -73 9 -174 27 -225 40 -61 16 -155 29 -282 40 -211 16 -301 35 -327 66 -35 41 -14 84 45 93 130 19 173 26 257 44 52 12 139 26 193 32 54 5 124 20 155 31 31 12 109 30 172 40 63 10 151 26 195 35 44 9 133 27 199 40 65 13 170 39 235 58 64 19 138 38 165 41 28 4 79 17 116 31 36 13 106 33 155 45 49 11 102 27 116 35 15 7 78 27 139 44 61 17 125 37 141 46 16 8 66 24 111 35 45 11 99 29 121 40 21 11 80 29 130 40 51 11 106 29 124 39 17 10 66 28 108 39 42 12 93 30 114 40 20 11 63 27 96 36 33 9 78 27 100 40 22 13 69 32 104 44 35 11 83 32 105 45 23 13 59 29 81 36 22 7 59 23 83 37 24 13 68 33 99 44 31 10 64 26 73 34 9 8 45 27 80 41 36 14 75 34 88 45 13 10 48 27 79 39 30 11 69 31 86 44 18 13 49 29 69 35 20 7 48 21 62 32 14 11 49 30 78 43 29 13 76 39 105 57 104 68 148 94 178 107 16 7 42 25 57 39 15 15 43 36 61 47 71 44 235 160 332 236 32 25 70 54 84 64 26 20 67 55 170 144 76 66 463 453 538 537 33 39 91 108 127 155 116 149 135 174 172 220 19 25 60 79 89 120 30 41 66 91 80 110 39 52 86 126 121 189 63 113 244 475 244 488 0 8 13 39 29 71 15 31 36 82 46 112 10 30 25 69 33 85 8 17 28 71 43 120 15 50 39 122 53 160 14 39 30 102 36 140 6 39 22 106 36 151 13 44 31 134 39 200 8 65 24 157 35 204 36 155 50 394 50 832 0 438 -10 614 -41 748 -11 47 -29 148 -39 225 -11 83 -33 186 -53 250 -19 61 -38 132 -42 160 -4 27 -15 72 -26 100 -10 27 -30 89 -43 136 -14 48 -34 102 -45 120 -11 19 -29 66 -39 105 -11 38 -29 88 -40 110 -11 21 -27 63 -36 93 -8 29 -27 73 -40 97 -13 24 -30 60 -37 81 -15 47 -107 225 -142 277 -15 21 -27 43 -27 49 0 6 -17 37 -37 69 -21 32 -56 87 -77 121 -43 68 -150 227 -209 309 -20 29 -53 76 -72 103 -19 28 -57 79 -85 115 -27 36 -57 76 -67 90 -45 65 -246 280 -389 415 -87 83 -188 179 -225 215 -130 125 -233 211 -386 322 -18 13 -59 43 -93 68 -90 66 -151 111 -206 149 -27 19 -65 48 -85 65 -34 29 -58 45 -182 129 -106 71 -325 195 -554 313 -305 158 -579 295 -612 305 -20 6 -61 25 -91 40 -31 16 -80 36 -110 45 -30 9 -70 24 -88 35 -18 10 -58 26 -90 35 -31 9 -75 26 -97 37 -37 18 -114 46 -310 112 -44 15 -105 36 -135 47 -60 22 -90 31 -255 83 -193 59 -287 86 -410 114 -66 15 -147 37 -180 48 -33 12 -109 28 -170 37 -60 9 -145 28 -188 41 -43 14 -133 32 -200 41 -67 8 -178 26 -247 39 -160 31 -250 42 -430 55 -80 6 -210 24 -290 40 -80 16 -197 32 -260 35 -129 7 -401 36 -590 62 -117 17 -324 18 -3270 18 -1730 0 -4306 -3 -5725 -6z"/>
<path d="M24235 28333 c-118 -10 -297 -35 -340 -49 -28 -8 -92 -23 -143 -34 -51 -10 -117 -30 -146 -43 -30 -14 -80 -33 -113 -42 -32 -9 -69 -24 -83 -33 -14 -9 -56 -33 -95 -53 -200 -103 -249 -137 -420 -290 -177 -158 -339 -336 -401 -439 -15 -25 -40 -65 -56 -90 -16 -24 -31 -56 -35 -70 -3 -14 -19 -52 -35 -85 -87 -174 -155 -445 -187 -750 -8 -70 -10 -1129 -6 -3535 5 -3505 8 -4258 24 -5175 5 -286 14 -1071 20 -1745 17 -1886 30 -2859 41 -3155 11 -286 31 -2621 23 -2643 -7 -16 -46 -26 -72 -17 -12 3 -34 17 -50 31 -42 35 -194 112 -249 126 -26 6 -72 22 -102 35 -30 13 -102 35 -159 49 -58 13 -124 31 -147 39 -94 32 -273 48 -529 49 -253 0 -389 -11 -495 -41 -30 -8 -111 -28 -178 -44 -68 -16 -139 -38 -156 -49 -18 -11 -62 -27 -97 -36 -35 -8 -81 -27 -102 -41 -22 -13 -58 -31 -80 -39 -66 -23 -214 -123 -355 -239 -41 -33 -88 -71 -105 -85 -62 -49 -190 -176 -216 -214 -112 -164 -211 -345 -241 -440 -7 -22 -21 -54 -31 -71 -10 -17 -28 -57 -39 -89 -11 -32 -31 -71 -45 -87 -14 -17 -28 -43 -32 -57 -11 -45 15 -365 46 -562 16 -102 32 -207 36 -235 4 -27 22 -86 41 -132 19 -45 34 -91 34 -102 0 -11 15 -49 34 -85 19 -36 40 -82 46 -101 6 -20 23 -49 36 -64 13 -16 33 -49 45 -73 31 -68 102 -166 218 -303 50 -59 234 -230 300 -278 16 -12 56 -42 87 -67 77 -60 177 -124 241 -155 29 -13 70 -35 90 -48 21 -13 49 -27 63 -32 14 -4 54 -22 90 -39 36 -18 94 -41 130 -50 36 -10 86 -29 111 -41 30 -16 85 -29 165 -39 65 -9 155 -25 199 -36 161 -40 453 -36 647 9 46 11 125 24 177 30 52 7 118 22 150 36 31 13 95 33 141 45 46 12 102 32 124 45 23 12 65 30 93 40 29 9 55 21 59 26 3 5 32 23 64 39 237 120 613 480 695 666 13 30 33 67 43 82 11 15 27 50 37 77 10 28 29 68 41 90 12 22 31 76 42 120 11 44 31 112 45 150 42 117 59 304 64 705 3 262 0 411 -11 570 -12 155 -19 488 -26 1200 -10 990 -29 1796 -55 2335 -22 444 -25 634 -36 1820 -5 605 -16 1303 -24 1550 -17 516 -23 1624 -29 5740 -3 1524 -7 2778 -11 2787 -4 9 -2 33 5 53 16 49 41 45 98 -16 57 -62 161 -136 226 -161 27 -11 68 -30 91 -43 22 -13 72 -32 110 -40 39 -9 84 -25 100 -35 18 -11 76 -26 140 -35 61 -9 153 -25 205 -35 164 -33 268 -42 495 -42 206 0 227 1 322 26 55 14 152 33 214 42 62 8 138 26 168 39 31 13 85 31 120 40 36 9 90 30 120 45 31 16 76 36 101 45 24 8 51 22 60 30 9 8 38 24 65 36 28 12 64 31 80 44 17 12 45 30 63 39 62 32 290 248 424 401 34 39 103 136 143 199 11 17 32 47 46 66 15 19 32 53 39 75 7 22 23 58 35 81 32 56 102 268 114 345 21 135 34 377 27 509 -9 185 -31 316 -72 436 -19 56 -34 106 -34 113 0 6 -24 60 -54 119 -154 308 -204 387 -352 563 -91 106 -147 160 -254 243 -47 36 -105 82 -130 101 -85 67 -154 115 -166 115 -7 0 -34 15 -60 33 -27 18 -65 39 -84 47 -19 7 -57 25 -85 41 -27 15 -73 34 -101 42 -28 8 -70 25 -94 37 -24 12 -98 33 -164 46 -66 13 -152 33 -191 44 -135 38 -405 58 -580 43z"/>
<path d="M7328 25830 c-67 -20 -177 -85 -225 -133 -56 -54 -70 -91 -58 -146 14 -65 124 -171 199 -193 51 -14 462 -15 7926 -16 4813 -1 6188 1 6351 7 9 1 27 9 39 19 21 17 22 26 26 221 3 202 3 203 -20 226 -24 24 -24 24 -7117 24 -3902 0 -7106 -4 -7121 -9z"/>
<path d="M32049 25827 c-3 -4 -1100 -7 -2438 -7 -1390 -1 -2443 -5 -2456 -10 -37 -14 -48 -46 -55 -165 -6 -89 -12 -121 -33 -166 -32 -67 -34 -102 -7 -129 20 -20 34 -20 613 -21 325 0 1792 -2 3260 -5 l2667 -5 0 251 0 250 -347 0 c-192 0 -539 3 -773 6 -234 4 -427 4 -431 1z"/>
<path d="M7320 21710 c-926 -7 -913 -6 -1018 -77 -84 -58 -142 -136 -142 -190 1 -35 15 -60 66 -116 33 -36 55 -50 100 -63 55 -16 449 -17 6479 -15 3531 1 6945 5 7587 9 1078 6 1169 8 1184 24 15 15 17 38 15 183 -1 91 -4 172 -7 180 -3 8 -20 18 -37 23 -18 5 -278 10 -587 10 -305 1 -1268 6 -2140 12 -872 6 -3232 13 -5245 16 -2013 3 -4058 7 -4545 8 -487 0 -1256 -1 -1710 -4z"/>
<path d="M23909 21680 c-285 -4 -319 -7 -337 -23 -17 -16 -20 -35 -25 -190 -5 -174 -2 -198 32 -216 10 -6 346 -12 852 -16 1293 -9 6747 -19 8687 -16 l482 1 0 230 0 230 -1112 1 c-3693 4 -8309 3 -8579 -1z"/>
<path d="M19285 19029 c-38 -5 -101 -18 -140 -29 -38 -10 -108 -27 -155 -35 -47 -9 -114 -29 -150 -45 -36 -16 -83 -31 -105 -35 -36 -6 -155 -57 -245 -105 -118 -63 -149 -81 -184 -109 -21 -17 -42 -31 -46 -31 -31 0 -282 -218 -344 -298 -86 -112 -126 -169 -156 -219 -17 -28 -37 -56 -44 -63 -8 -6 -24 -36 -37 -68 -12 -31 -31 -70 -42 -85 -11 -16 -28 -55 -38 -88 -10 -32 -27 -76 -39 -98 -11 -23 -27 -71 -36 -108 -8 -38 -29 -122 -46 -188 -31 -120 -31 -120 -39 -1415 -4 -712 -8 -2391 -8 -3730 -2 -2360 -16 -5260 -29 -6111 -7 -391 -8 -418 -26 -438 -25 -28 -40 -27 -98 9 -26 16 -51 30 -55 30 -3 0 -20 11 -38 24 -17 13 -58 37 -90 53 -33 16 -78 39 -100 51 -68 36 -209 100 -235 108 -14 3 -50 19 -80 34 -30 15 -91 37 -136 49 -45 11 -114 32 -155 46 -40 14 -109 29 -154 35 -44 5 -141 18 -215 30 -259 40 -509 37 -710 -8 -47 -11 -121 -24 -165 -30 -44 -6 -107 -22 -140 -36 -33 -14 -98 -35 -144 -46 -47 -12 -103 -32 -125 -45 -23 -12 -67 -30 -98 -39 -31 -9 -60 -21 -64 -27 -3 -6 -38 -26 -78 -45 -142 -69 -299 -160 -390 -226 -171 -124 -423 -433 -528 -648 -123 -252 -168 -456 -168 -760 0 -161 17 -330 41 -400 31 -95 86 -222 120 -280 63 -109 131 -213 163 -253 52 -63 299 -309 358 -357 120 -97 229 -174 278 -196 19 -9 53 -28 75 -43 61 -41 183 -98 369 -172 26 -11 78 -26 115 -34 36 -8 95 -25 131 -38 36 -14 99 -30 140 -37 41 -6 145 -26 230 -43 150 -31 163 -32 395 -31 236 1 243 1 425 38 286 57 319 65 361 86 21 11 62 25 91 31 29 6 71 21 93 32 22 11 70 30 108 43 37 13 81 32 97 44 16 11 47 27 69 35 47 16 159 81 216 125 22 16 59 42 82 58 139 92 387 328 484 462 84 116 203 335 235 435 9 27 25 65 36 84 33 59 108 410 119 556 5 72 13 864 19 1760 5 897 14 1765 19 1930 6 165 13 1254 16 2420 2 1166 7 2165 10 2220 3 55 7 677 8 1382 3 1040 6 1284 16 1297 27 32 63 19 148 -53 74 -64 105 -85 167 -118 58 -30 88 -45 231 -113 33 -16 76 -32 95 -35 19 -4 77 -23 129 -41 71 -26 121 -37 209 -44 63 -6 155 -17 206 -25 129 -21 269 -19 516 9 215 25 262 35 485 110 289 97 511 234 726 448 158 156 283 310 349 427 8 14 29 49 46 76 18 28 39 73 47 101 8 28 26 73 40 100 14 28 32 86 41 130 8 44 24 112 35 151 11 40 25 114 31 166 16 123 8 449 -13 532 -47 192 -79 299 -100 342 -14 27 -30 68 -37 93 -17 63 -119 234 -205 344 -123 159 -405 448 -505 520 -161 116 -317 207 -413 242 -21 7 -50 22 -65 33 -15 10 -61 30 -102 44 -41 14 -113 39 -160 55 -47 17 -123 38 -170 47 -47 9 -114 23 -150 31 -78 19 -514 28 -625 13z"/>
<path d="M4420 17501 c-25 -4 -83 -22 -130 -40 -66 -25 -97 -44 -137 -84 -95 -93 -96 -166 -4 -255 104 -101 -172 -90 2401 -97 4236 -11 9303 -16 9810 -9 505 7 505 7 537 39 30 30 33 39 34 96 1 74 11 144 30 211 12 44 11 50 -6 74 -20 25 -20 25 -505 29 -267 2 -2334 8 -4595 14 -4831 12 -7283 20 -7345 25 -25 2 -65 0 -90 -3z"/>
<path d="M2770 13285 c-8 -2 -31 -6 -51 -9 -57 -10 -151 -78 -190 -137 -44 -69 -43 -100 7 -180 33 -52 54 -72 114 -109 l73 -45 2726 -7 c3580 -9 11371 -5 11393 5 10 5 20 19 24 30 9 27 8 378 -1 406 -3 12 -21 25 -43 32 -28 9 -1705 13 -7037 15 -3850 1 -7007 1 -7015 -1z"/>
<path d="M23877 13270 c-189 -5 -189 -5 -214 -35 -25 -28 -25 -33 -19 -119 3 -49 6 -131 6 -181 0 -75 3 -97 18 -116 27 -32 -704 -28 7127 -38 1007 -1 2049 -2 2318 -2 l487 1 0 250 0 250 -4767 -2 c-2623 -1 -4853 -5 -4956 -8z"/>
<path d="M19175 13150 c-336 -6 -343 -7 -365 -75 -16 -50 -5 -138 21 -161 18 -17 79 -18 1087 -20 1236 -3 1840 8 1887 35 43 24 63 85 46 140 -21 70 -12 69 -446 80 -388 11 -1657 11 -2230 1z"/>
<path d="M7227 9118 c-57 -5 -78 -13 -136 -51 -111 -74 -155 -163 -121 -251 14 -38 87 -114 139 -144 46 -27 46 -27 4843 -30 4341 -3 4800 -2 4827 13 17 8 33 25 35 38 4 19 11 145 19 336 2 37 -2 47 -26 65 -28 21 -28 21 -3340 23 -1822 2 -3955 4 -4742 5 -786 2 -1460 0 -1498 -4z"/>
<path d="M23865 9102 c-65 -8 -89 -56 -73 -139 6 -32 11 -109 12 -172 1 -109 2 -115 26 -132 24 -18 173 -19 4898 -25 l4872 -7 0 242 0 242 -4852 -3 c-2669 -1 -4866 -3 -4883 -6z"/>
</g>
</g>
<g transform="translate(2632,396)">
<g transform="translate(0,733.0) scale(0.1,-0.1)" fill="#e5e5e5" stroke="none">
<path d="M15420 7119 c-25 -5 -65 -17 -90 -28 -25 -10 -70 -22 -100 -26 -30 -3 -95 -17 -145 -30 -112 -30 -182 -42 -310 -55 -55 -6 -127 -19 -160 -30 -33 -11 -109 -26 -170 -34 -120 -16 -135 -25 -135 -83 0 -21 10 -44 28 -65 35 -41 79 -161 91 -253 12 -84 17 -5797 6 -5895 -5 -38 -22 -94 -42 -138 -31 -69 -32 -75 -18 -102 9 -17 26 -32 40 -36 13 -3 291 -2 616 3 592 8 592 8 612 35 20 27 20 27 -6 67 -64 97 -68 189 -70 1771 -2 1365 -2 1365 21 1414 42 90 120 179 257 290 102 83 223 166 242 166 6 0 23 10 37 21 38 30 200 95 266 107 30 6 125 16 210 23 145 11 164 10 292 -10 168 -26 270 -69 381 -159 67 -55 93 -83 154 -167 46 -64 114 -221 128 -295 8 -41 21 -106 31 -145 16 -64 18 -173 21 -1195 3 -637 0 -1238 -6 -1385 -9 -248 -11 -264 -39 -351 -17 -50 -36 -101 -43 -112 -12 -19 -11 -25 7 -49 21 -28 21 -28 330 -28 480 1 904 15 937 32 33 17 34 24 2 71 -20 30 -28 63 -40 162 -8 69 -18 139 -21 155 -3 17 -10 662 -14 1435 -6 1174 -10 1425 -23 1526 -8 67 -22 135 -30 150 -8 16 -22 61 -31 101 -13 59 -63 181 -94 229 -78 122 -210 272 -334 378 -42 36 -144 106 -155 106 -5 0 -26 12 -48 27 -64 43 -276 118 -453 159 -185 43 -646 36 -828 -12 -55 -15 -126 -32 -159 -38 -33 -7 -73 -19 -90 -28 -16 -9 -60 -25 -96 -36 -36 -11 -83 -32 -104 -46 -21 -14 -41 -26 -45 -26 -5 0 -30 -15 -58 -32 -27 -18 -62 -41 -78 -50 -16 -10 -51 -34 -79 -55 -27 -20 -66 -48 -86 -62 -92 -66 -158 -119 -224 -182 -77 -73 -105 -84 -123 -45 -7 16 -13 392 -17 1222 -4 660 -10 1291 -14 1403 -6 197 -7 204 -30 222 -25 21 -33 21 -101 8z"/>
<path d="M11985 6106 c-22 -7 -58 -22 -80 -33 -22 -11 -62 -26 -90 -32 -27 -7 -61 -19 -74 -28 -13 -8 -59 -24 -103 -34 -186 -45 -280 -105 -293 -187 -6 -34 -16 -71 -85 -302 -12 -41 -32 -113 -44 -160 -13 -47 -30 -99 -39 -116 -9 -18 -28 -62 -42 -99 -64 -172 -133 -247 -266 -291 -36 -12 -75 -27 -87 -33 -11 -6 -86 -22 -166 -36 -171 -29 -248 -55 -264 -89 -12 -27 -19 -310 -8 -343 4 -11 14 -25 24 -29 9 -4 152 -9 317 -11 173 -2 311 -8 326 -14 22 -9 28 -18 32 -57 3 -26 2 -499 -1 -1052 -3 -553 -6 -1187 -5 -1410 0 -389 1 -410 26 -540 35 -189 101 -343 206 -485 65 -87 218 -237 276 -269 28 -16 63 -37 78 -48 47 -33 166 -78 312 -121 140 -40 140 -40 410 -41 264 -1 272 0 365 26 52 14 115 29 140 33 25 4 65 18 90 30 25 12 70 30 100 40 30 10 62 23 70 30 8 7 40 25 70 39 89 42 232 136 291 191 33 30 39 42 39 76 0 102 -52 301 -83 321 -23 14 -58 8 -95 -17 -20 -14 -44 -25 -53 -25 -9 0 -42 -14 -73 -30 -31 -17 -84 -37 -119 -44 -34 -8 -88 -24 -119 -35 -47 -17 -80 -21 -185 -21 -114 0 -134 3 -179 24 -28 13 -65 27 -81 30 -66 15 -190 123 -255 221 -35 53 -86 189 -99 262 -6 37 -11 570 -13 1460 -3 1358 -3 1403 15 1419 18 16 63 17 597 11 591 -7 642 -4 661 31 4 9 11 94 14 187 3 94 9 180 13 192 4 16 -1 29 -18 46 -24 24 -25 24 -313 30 -158 4 -433 7 -609 7 -177 0 -327 4 -334 8 -29 19 -32 89 -32 684 0 595 0 608 -20 628 -23 23 -82 26 -145 6z"/>
<path d="M22080 4909 c-197 -12 -326 -28 -393 -49 -34 -10 -97 -24 -141 -30 -43 -7 -97 -20 -120 -29 -22 -10 -66 -24 -96 -31 -77 -17 -324 -133 -395 -185 -16 -13 -68 -46 -115 -74 -152 -93 -242 -165 -377 -302 -127 -130 -153 -161 -256 -314 -118 -175 -201 -329 -223 -410 -7 -29 -22 -70 -33 -91 -11 -22 -27 -73 -35 -114 -8 -41 -22 -95 -31 -120 -9 -25 -25 -106 -35 -180 -10 -74 -24 -164 -31 -200 -18 -96 -16 -385 4 -500 9 -52 21 -136 27 -186 5 -49 19 -117 30 -150 12 -32 28 -90 37 -129 8 -38 23 -86 33 -105 10 -19 25 -58 33 -85 32 -110 191 -390 286 -504 20 -24 49 -60 64 -80 49 -63 159 -173 242 -241 70 -57 105 -83 235 -170 73 -49 186 -113 275 -155 55 -26 116 -55 135 -65 19 -10 51 -21 70 -25 19 -4 64 -20 100 -35 36 -16 102 -33 146 -40 45 -6 106 -19 135 -29 82 -29 218 -42 509 -48 334 -6 542 10 740 60 154 39 282 83 354 121 27 14 55 26 61 26 15 0 172 75 240 114 115 68 194 116 250 155 33 23 76 52 95 65 139 93 436 438 534 622 15 27 33 60 41 74 32 59 83 167 90 190 4 14 19 59 35 100 63 169 91 276 105 410 8 74 19 169 25 210 5 41 10 110 10 154 0 127 -59 588 -84 647 -8 19 -23 75 -34 124 -11 50 -32 119 -47 155 -78 192 -99 237 -116 256 -10 11 -19 25 -19 30 0 5 -21 43 -48 84 -191 299 -364 474 -691 702 -102 70 -239 150 -281 163 -14 4 -47 20 -75 35 -27 15 -75 33 -106 39 -31 7 -71 20 -90 30 -19 10 -68 24 -109 30 -41 7 -113 23 -160 37 -152 43 -501 62 -800 43z m400 -405 c275 -60 500 -231 684 -519 21 -33 54 -83 72 -111 19 -28 34 -54 34 -58 0 -9 70 -160 102 -221 12 -22 27 -65 34 -95 6 -30 25 -113 42 -185 16 -71 33 -159 37 -195 3 -36 13 -103 21 -150 62 -373 27 -1047 -66 -1260 -16 -37 -30 -76 -30 -85 0 -17 -35 -99 -107 -255 -88 -191 -185 -319 -325 -433 -158 -129 -230 -170 -413 -233 -89 -31 -115 -36 -235 -40 -135 -6 -205 1 -290 29 -25 9 -74 22 -110 30 -142 34 -378 197 -496 343 -18 22 -43 53 -56 69 -26 32 -95 137 -143 220 -86 147 -205 468 -234 631 -6 32 -17 122 -26 199 -9 77 -20 169 -25 205 -15 105 -12 461 5 575 9 55 22 159 29 230 10 91 21 148 39 190 13 33 27 80 31 105 9 58 123 316 177 400 120 188 153 231 239 323 87 92 198 181 274 218 33 16 72 36 86 44 14 8 34 15 45 15 11 0 54 7 95 16 181 38 327 38 510 -2z"/>
<path d="M32190 4913 c-155 -8 -343 -34 -388 -53 -25 -11 -77 -25 -114 -30 -38 -6 -86 -19 -107 -30 -21 -10 -69 -27 -107 -36 -38 -9 -76 -22 -84 -29 -8 -6 -62 -35 -120 -64 -58 -29 -113 -60 -123 -69 -11 -9 -38 -28 -61 -42 -88 -52 -110 -66 -174 -118 -146 -117 -346 -333 -425 -459 -14 -23 -31 -44 -37 -48 -6 -3 -19 -23 -31 -43 -11 -20 -38 -66 -59 -102 -41 -69 -140 -267 -140 -281 0 -5 -14 -43 -30 -84 -41 -103 -96 -323 -105 -415 -3 -41 -13 -118 -20 -170 -22 -154 -27 -304 -16 -475 19 -294 38 -406 104 -620 41 -132 124 -326 163 -380 11 -16 29 -46 39 -65 74 -144 425 -518 586 -624 24 -16 63 -42 85 -57 52 -36 265 -144 324 -165 25 -9 68 -27 95 -40 84 -38 284 -96 400 -115 61 -10 164 -28 230 -40 111 -20 142 -21 430 -15 171 3 328 10 350 15 22 5 103 23 180 39 163 34 317 79 395 116 30 14 61 26 68 26 7 0 38 13 70 29 31 15 68 32 82 36 14 4 43 19 65 32 22 14 78 47 125 73 47 27 99 58 115 70 17 11 46 32 65 45 19 14 48 33 63 44 15 10 74 61 130 112 186 172 195 185 178 256 -62 253 -73 276 -129 276 -28 0 -53 -15 -168 -103 -32 -25 -73 -54 -91 -65 -150 -93 -186 -115 -206 -121 -12 -4 -50 -22 -85 -40 -35 -19 -70 -34 -78 -34 -8 0 -36 -11 -63 -25 -27 -13 -82 -33 -122 -44 -41 -10 -97 -28 -126 -40 -28 -11 -98 -25 -155 -31 -57 -6 -120 -15 -139 -20 -51 -15 -305 -12 -417 4 -53 8 -144 20 -201 26 -68 7 -119 19 -145 32 -23 12 -70 27 -106 35 -35 7 -71 20 -80 27 -8 8 -44 29 -79 47 -145 77 -198 114 -294 206 -57 54 -174 185 -227 254 -96 124 -214 340 -240 439 -6 25 -23 76 -36 114 -14 39 -28 110 -33 165 -35 374 -35 368 -17 396 11 17 25 25 44 24 15 0 740 2 1612 4 1239 4 1591 8 1612 17 45 21 51 60 45 284 -3 138 -10 222 -21 269 -9 38 -23 121 -31 185 -8 70 -22 137 -35 167 -11 27 -26 72 -32 100 -5 27 -22 73 -37 100 -16 28 -31 64 -35 80 -4 17 -18 46 -31 66 -13 20 -31 54 -40 75 -24 59 -109 187 -175 265 -96 113 -230 237 -315 293 -22 14 -49 32 -60 40 -74 50 -137 88 -166 98 -19 6 -46 19 -60 29 -30 21 -221 99 -242 99 -8 0 -57 14 -108 31 -81 27 -121 33 -284 45 -172 12 -436 15 -605 7z m400 -384 c30 -11 80 -28 110 -38 102 -34 247 -136 334 -234 78 -88 138 -182 192 -301 25 -56 54 -120 65 -142 11 -23 26 -79 34 -125 8 -46 21 -109 30 -139 10 -35 16 -108 18 -202 2 -145 2 -148 -23 -172 -25 -25 -25 -25 -1090 -32 -990 -7 -1066 -6 -1079 10 -21 25 -7 150 28 254 16 48 33 112 36 142 4 30 17 75 29 100 13 25 27 56 31 70 29 96 164 323 262 444 133 163 340 296 515 331 45 10 91 21 101 27 28 14 130 25 247 26 82 1 117 -3 160 -19z"/>
<path d="M38005 4903 c-125 -10 -236 -27 -280 -44 -27 -10 -77 -24 -109 -30 -33 -6 -80 -21 -105 -34 -25 -12 -60 -26 -77 -29 -17 -4 -46 -18 -64 -31 -18 -14 -49 -30 -69 -36 -20 -7 -49 -22 -66 -34 -16 -13 -45 -30 -63 -39 -18 -10 -61 -38 -94 -64 -33 -26 -70 -54 -81 -62 -83 -56 -163 -122 -233 -190 -45 -44 -89 -80 -98 -80 -22 0 -32 29 -46 134 -7 48 -19 111 -26 140 -8 28 -21 96 -29 151 -13 90 -17 103 -45 128 -37 33 -87 36 -151 8 -24 -11 -73 -23 -109 -27 -36 -3 -105 -19 -155 -34 -49 -15 -114 -31 -144 -35 -56 -6 -132 -24 -211 -49 -25 -8 -78 -20 -117 -25 -40 -6 -90 -20 -111 -31 -22 -12 -63 -23 -91 -27 -70 -8 -94 -28 -94 -79 0 -35 10 -60 58 -144 34 -58 75 -186 87 -268 10 -68 12 -438 10 -1731 -1 -904 -7 -1683 -12 -1731 -6 -61 -17 -104 -34 -139 -32 -62 -32 -75 -4 -95 20 -14 96 -16 625 -16 602 0 602 0 630 24 27 24 27 24 -10 110 -31 71 -40 106 -47 189 -11 124 -12 2865 -1 2923 18 93 264 354 399 423 23 11 43 25 46 30 4 5 23 15 44 22 20 6 50 21 65 32 16 10 47 25 70 32 23 7 66 23 96 34 98 39 253 64 406 64 175 0 260 -14 352 -58 40 -19 76 -35 79 -35 18 0 145 -95 190 -142 60 -63 119 -143 129 -178 4 -14 19 -47 32 -73 24 -48 35 -96 73 -312 19 -105 20 -167 20 -1410 0 -1101 -3 -1310 -15 -1365 -13 -60 -48 -206 -61 -257 -13 -47 -2 -47 631 -45 689 3 661 -1 619 98 -20 47 -41 157 -55 279 -6 58 -8 557 -5 1410 4 876 2 1358 -5 1435 -14 158 -34 273 -64 360 -14 40 -25 80 -25 88 0 21 -67 167 -108 237 -81 136 -240 296 -388 390 -122 77 -149 93 -189 105 -22 7 -54 20 -71 30 -17 10 -55 23 -84 29 -29 6 -85 22 -124 36 -39 13 -117 29 -174 35 -93 9 -418 11 -517 3z"/>
<path d="M2349 4890 c-42 -4 -105 -17 -140 -28 -35 -11 -95 -26 -134 -32 -79 -12 -257 -68 -356 -111 -36 -16 -69 -29 -72 -29 -12 0 -190 -90 -257 -130 -36 -21 -81 -48 -100 -59 -60 -33 -199 -149 -324 -271 -115 -112 -226 -248 -295 -360 -58 -96 -178 -343 -190 -392 -6 -26 -20 -62 -31 -80 -10 -19 -26 -65 -34 -103 -8 -39 -24 -90 -35 -115 -11 -25 -27 -99 -35 -165 -9 -66 -23 -145 -31 -175 -37 -134 -28 -597 14 -761 11 -41 22 -96 26 -124 7 -58 64 -247 107 -355 51 -127 147 -316 188 -372 22 -29 40 -56 40 -61 0 -9 30 -47 131 -167 111 -131 273 -272 429 -375 82 -54 185 -115 194 -115 5 0 30 -13 55 -29 25 -16 66 -35 90 -41 24 -6 54 -18 65 -25 80 -52 488 -154 701 -175 272 -28 725 -8 930 41 241 57 386 101 417 126 8 7 35 20 59 28 24 9 60 26 79 38 19 13 56 31 82 41 26 10 50 22 54 27 3 5 31 23 62 40 112 60 135 75 310 200 79 57 247 223 266 262 17 39 17 44 1 121 -20 100 -75 222 -103 230 -28 9 -74 -14 -154 -76 -92 -72 -266 -180 -311 -193 -12 -4 -43 -20 -68 -36 -25 -16 -53 -29 -62 -29 -8 0 -45 -15 -81 -34 -36 -19 -84 -37 -108 -41 -23 -4 -63 -16 -88 -27 -25 -11 -95 -28 -156 -39 -62 -11 -132 -26 -155 -35 -67 -23 -247 -37 -419 -31 -138 4 -163 8 -217 31 -33 14 -91 30 -128 36 -37 6 -91 24 -122 40 -31 17 -62 30 -69 30 -15 0 -173 81 -214 110 -15 11 -32 20 -37 20 -4 0 -28 16 -52 35 -24 19 -47 35 -50 35 -7 0 -48 37 -145 129 -107 102 -196 216 -237 301 -12 25 -30 57 -41 72 -10 15 -28 53 -38 84 -11 31 -25 62 -30 69 -12 15 -63 175 -80 250 -15 65 -59 456 -53 471 11 29 64 37 288 46 127 5 298 7 380 4 178 -6 2422 12 2513 20 90 8 96 20 101 194 8 299 -34 585 -131 895 -73 232 -128 325 -326 550 -186 212 -292 303 -448 383 -146 75 -199 99 -234 107 -19 4 -61 18 -93 32 -32 13 -97 29 -145 34 -48 6 -109 20 -136 31 -27 10 -95 23 -150 28 -117 11 -556 11 -667 0z m387 -400 c89 -7 128 -15 190 -41 44 -18 93 -42 109 -54 17 -11 50 -33 75 -47 70 -40 169 -146 234 -249 32 -52 67 -106 77 -120 10 -15 21 -40 25 -55 4 -16 22 -58 40 -95 18 -36 37 -91 43 -123 6 -31 20 -87 31 -123 17 -55 20 -93 20 -243 0 -164 -1 -178 -20 -195 -18 -16 -53 -19 -357 -26 -186 -4 -498 -13 -693 -21 -195 -7 -509 -13 -696 -13 -322 0 -343 1 -363 19 -15 14 -21 31 -21 60 0 74 20 202 40 262 11 32 25 87 31 123 18 117 126 345 236 499 122 171 319 338 446 377 23 7 65 23 92 36 36 16 78 24 150 29 153 10 191 10 311 0z"/>
<path d="M7460 4889 c-41 -4 -122 -19 -180 -32 -58 -14 -127 -28 -155 -32 -27 -4 -66 -15 -86 -26 -20 -10 -68 -27 -105 -38 -38 -11 -91 -31 -118 -45 -27 -14 -56 -26 -64 -26 -8 0 -29 -9 -46 -19 -17 -11 -51 -27 -76 -37 -25 -10 -58 -28 -73 -41 -16 -13 -34 -23 -41 -23 -19 0 -186 -113 -303 -205 -109 -85 -278 -274 -377 -420 -27 -38 -54 -77 -61 -85 -27 -31 -154 -290 -171 -346 -9 -32 -25 -75 -35 -95 -29 -57 -88 -292 -108 -429 -7 -41 -18 -104 -26 -139 -33 -153 -28 -582 10 -745 9 -37 20 -98 24 -136 9 -71 56 -235 93 -325 11 -27 31 -77 43 -110 21 -54 48 -107 127 -251 103 -188 400 -509 566 -612 24 -15 56 -37 71 -49 15 -12 47 -32 72 -46 24 -13 90 -50 145 -81 56 -31 107 -56 113 -56 6 0 37 -13 69 -29 31 -15 79 -33 106 -40 27 -7 65 -21 86 -31 20 -10 78 -26 127 -33 50 -8 104 -22 122 -32 57 -29 203 -39 561 -39 359 0 344 -1 610 49 200 39 389 91 441 122 19 11 60 28 91 37 31 9 60 21 64 27 4 6 31 22 61 35 30 13 66 33 81 43 15 10 49 31 75 47 106 63 143 88 263 174 22 16 93 79 157 140 146 140 148 145 117 296 -29 144 -50 184 -97 184 -31 0 -52 -11 -125 -68 -58 -46 -90 -67 -196 -134 -61 -39 -154 -92 -197 -112 -119 -57 -193 -87 -229 -93 -22 -3 -73 -19 -111 -34 -44 -17 -100 -30 -150 -35 -44 -4 -107 -16 -140 -27 -51 -17 -94 -20 -294 -24 -226 -5 -237 -4 -350 22 -149 35 -377 110 -409 136 -14 11 -44 29 -66 39 -184 90 -381 261 -515 449 -68 93 -221 384 -221 419 0 9 -12 44 -25 77 -14 33 -32 101 -40 150 -9 50 -24 137 -35 195 -31 170 -32 209 -4 237 23 23 23 23 566 24 1618 4 2643 14 2665 27 38 21 50 61 57 189 8 143 -23 475 -54 576 -10 34 -24 89 -30 122 -7 33 -19 76 -27 95 -9 19 -26 69 -38 110 -30 97 -87 232 -114 266 -12 15 -21 32 -21 39 0 35 -168 246 -275 347 -28 25 -69 64 -92 87 -98 92 -297 231 -332 231 -8 0 -37 13 -65 30 -29 16 -72 32 -96 36 -25 4 -71 17 -102 30 -31 13 -89 28 -130 34 -40 6 -100 20 -134 31 -33 11 -108 24 -165 29 -124 11 -573 11 -679 -1z m525 -402 c83 -20 201 -77 271 -130 216 -164 357 -383 424 -657 29 -119 60 -371 60 -487 0 -87 13 -84 -438 -94 -213 -5 -565 -13 -782 -19 -508 -13 -926 -13 -950 0 -10 5 -21 21 -24 35 -9 36 13 200 36 267 10 31 30 94 43 140 50 181 117 316 262 528 95 139 298 304 438 355 28 10 60 25 73 33 55 36 179 52 357 47 96 -2 196 -10 230 -18z"/>
<path d="M24965 4773 c-41 -6 -65 -30 -65 -65 0 -23 21 -51 100 -134 55 -58 100 -110 100 -116 0 -6 11 -25 24 -42 13 -17 32 -49 43 -71 11 -22 63 -124 114 -226 52 -102 99 -195 104 -206 6 -11 18 -37 29 -59 10 -21 36 -75 57 -119 22 -44 39 -85 39 -91 0 -5 11 -25 25 -44 13 -18 30 -49 36 -69 14 -45 77 -177 99 -211 10 -14 23 -43 30 -65 7 -22 24 -56 36 -75 13 -19 24 -39 24 -43 0 -5 19 -48 41 -95 23 -48 57 -121 76 -162 19 -41 45 -96 59 -122 13 -26 31 -65 39 -88 8 -23 23 -53 33 -68 11 -15 23 -38 27 -52 4 -14 23 -59 42 -100 76 -164 105 -226 120 -255 9 -16 21 -41 27 -54 11 -23 112 -226 133 -266 6 -11 42 -85 80 -165 115 -239 328 -660 396 -785 9 -16 17 -36 17 -44 0 -7 11 -34 24 -60 36 -67 116 -246 116 -257 0 -5 13 -36 29 -69 16 -33 38 -81 50 -107 34 -79 47 -83 261 -82 214 0 240 7 260 71 7 21 25 63 40 93 30 58 88 180 114 240 8 19 22 46 30 60 8 14 35 70 61 125 25 55 53 111 61 125 8 14 22 41 30 60 8 19 22 49 31 65 9 17 25 48 35 70 10 22 25 51 33 65 8 14 24 45 36 70 12 25 50 106 86 180 36 74 78 164 94 200 17 36 45 94 63 130 19 36 37 76 41 90 4 14 16 36 25 50 10 14 25 46 34 72 8 26 27 69 40 95 14 26 41 84 61 128 20 44 45 96 56 115 11 19 29 55 40 80 11 25 26 56 33 70 57 102 376 753 376 766 0 9 62 143 101 216 10 20 28 61 39 91 12 30 27 60 35 67 8 6 19 28 26 48 6 20 22 51 35 69 13 17 24 36 24 40 0 5 15 34 34 65 18 31 38 70 44 87 6 18 20 44 31 60 11 15 30 52 41 82 12 30 27 61 35 69 7 8 16 26 20 40 7 26 76 176 101 220 7 14 23 45 35 70 12 25 31 59 44 75 36 48 55 93 49 110 -4 9 -20 23 -37 31 -25 14 -79 16 -376 14 -190 -1 -360 -4 -378 -7 -62 -10 -73 -32 -73 -144 0 -104 -21 -215 -62 -329 -11 -30 -29 -86 -39 -124 -11 -37 -28 -85 -39 -105 -10 -20 -21 -55 -25 -76 -4 -22 -20 -62 -35 -90 -15 -27 -33 -75 -40 -105 -7 -30 -21 -70 -31 -88 -11 -18 -26 -62 -35 -97 -9 -36 -22 -70 -30 -76 -8 -6 -23 -42 -34 -79 -11 -37 -27 -73 -35 -80 -7 -6 -19 -28 -26 -48 -6 -20 -24 -57 -40 -82 -16 -25 -35 -66 -44 -90 -9 -24 -22 -51 -29 -60 -7 -8 -19 -33 -26 -55 -7 -22 -24 -62 -37 -89 -14 -27 -32 -71 -40 -98 -8 -27 -25 -70 -39 -95 -13 -25 -24 -54 -24 -63 0 -9 -13 -41 -29 -71 -15 -30 -34 -72 -41 -94 -7 -22 -18 -47 -25 -55 -6 -8 -35 -64 -64 -125 -28 -60 -57 -121 -65 -135 -16 -28 -89 -174 -146 -295 -21 -44 -41 -94 -45 -111 -8 -40 -36 -67 -67 -62 -18 2 -27 15 -44 64 -12 34 -30 75 -41 90 -11 16 -25 44 -31 62 -6 18 -19 45 -30 60 -17 26 -134 261 -214 432 -22 47 -46 96 -54 110 -7 14 -21 41 -29 60 -9 19 -31 67 -50 105 -20 39 -35 75 -35 81 0 6 -13 31 -30 55 -16 24 -30 52 -30 62 0 10 -16 48 -35 84 -19 36 -35 74 -35 83 0 10 -12 35 -26 56 -15 21 -35 62 -44 89 -10 28 -29 72 -44 99 -14 27 -26 56 -26 65 0 9 -12 33 -26 54 -14 21 -31 57 -38 80 -7 23 -25 60 -39 81 -15 21 -27 45 -27 52 0 8 -16 43 -35 80 -19 36 -35 73 -35 83 0 9 -11 32 -25 51 -13 18 -32 56 -41 84 -9 28 -23 60 -30 72 -8 11 -23 47 -34 79 -11 32 -27 69 -35 81 -8 12 -24 50 -35 85 -12 35 -28 74 -35 85 -8 12 -21 50 -30 85 -9 34 -25 79 -34 98 -10 20 -24 61 -31 91 -19 88 -20 89 -53 108 -29 16 -83 17 -652 18 -341 1 -633 -1 -650 -3z"/>
</g>
</g>
</svg>