<svg xmlns="http://www.w3.org/2000/svg" viewBox="0 0 4000 4000" preserveAspectRatio="xMidYMid meet">
<g transform="translate(0, 900)">
<g transform="translate(0,2200) scale(0.1,-0.1)" fill="#1a1a1a" stroke="none">
<path d="M15835 21559 c-1756 -6 -2519 -16 -3120 -39 -143 -5 -474 -15 -735 -20 -453 -10 -687 -18 -1100 -40 -102 -5 -345 -14 -540 -20 -195 -6 -431 -15 -525 -20 -93 -5 -278 -14 -410 -20 -537 -23 -662 -30 -678 -36 -22 -8 -22 -40 -1 -48 9 -3 177 -11 374 -16 198 -6 365 -12 372 -15 39 -13 294 -26 703 -35 470 -10 678 -21 913 -45 73 -8 301 -19 505 -25 591 -17 1005 -30 1237 -40 118 -5 501 -14 850 -20 349 -5 952 -17 1340 -25 1266 -27 2913 -48 5485 -70 1760 -16 1866 -19 2031 -60 34 -8 124 -21 200 -29 77 -9 173 -24 214 -35 41 -11 110 -25 154 -31 43 -6 97 -18 120 -26 22 -9 83 -24 134 -34 51 -11 101 -24 110 -29 10 -5 51 -19 92 -30 41 -11 125 -38 185 -61 61 -23 135 -50 165 -61 55 -19 71 -27 250 -114 245 -119 509 -285 660 -415 15 -14 52 -43 81 -65 65 -49 229 -213 301 -301 29 -37 80 -99 113 -140 94 -115 150 -193 184 -256 12 -20 25 -40 31 -43 6 -4 22 -27 36 -53 14 -26 41 -74 59 -107 91 -160 206 -414 249 -550 12 -38 28 -79 35 -90 12 -20 44 -133 82 -295 11 -47 27 -112 35 -145 8 -33 21 -96 30 -140 9 -44 26 -132 39 -195 13 -63 29 -167 35 -230 5 -63 17 -140 25 -170 23 -82 35 -308 35 -650 0 -330 -9 -505 -40 -755 -11 -88 -24 -216 -30 -285 -6 -69 -20 -161 -30 -205 -10 -44 -26 -120 -35 -169 -9 -50 -21 -98 -26 -108 -5 -9 -16 -52 -25 -95 -8 -43 -26 -112 -39 -153 -14 -41 -41 -129 -60 -195 -20 -66 -45 -142 -57 -170 -11 -27 -26 -70 -34 -94 -7 -24 -22 -57 -33 -75 -10 -17 -24 -49 -31 -71 -13 -39 -59 -127 -125 -235 -19 -30 -46 -75 -60 -100 -14 -25 -44 -72 -65 -105 -22 -33 -51 -82 -65 -110 -93 -187 -478 -585 -747 -773 -18 -13 -56 -40 -85 -60 -52 -38 -93 -64 -145 -93 -16 -10 -46 -28 -66 -42 -31 -21 -69 -43 -182 -108 -79 -45 -302 -147 -370 -169 -30 -10 -77 -27 -105 -38 -27 -12 -104 -37 -170 -57 -66 -20 -140 -43 -165 -51 -25 -9 -72 -22 -105 -30 -33 -8 -100 -26 -150 -39 -49 -13 -119 -29 -155 -35 -36 -6 -112 -21 -170 -35 -58 -13 -141 -27 -185 -30 -44 -4 -127 -15 -185 -26 -194 -35 -532 -40 -3047 -46 -2324 -5 -2433 -6 -2448 -23 -14 -15 -17 -48 -20 -174 -4 -146 -3 -157 16 -166 31 -17 657 -29 1539 -31 1527 -2 2502 -14 2620 -32 60 -9 241 -21 420 -27 473 -16 867 -42 1045 -70 66 -10 179 -24 250 -30 72 -6 155 -17 185 -25 71 -17 105 -22 220 -35 52 -6 120 -18 150 -26 30 -9 111 -26 180 -39 145 -26 266 -55 400 -95 52 -16 118 -35 145 -43 89 -27 294 -106 380 -147 100 -47 251 -121 265 -129 8 -5 49 -29 90 -52 41 -24 94 -57 117 -74 23 -16 61 -43 84 -60 160 -112 573 -497 683 -635 19 -25 45 -56 56 -70 104 -127 188 -249 275 -400 43 -75 66 -113 95 -155 15 -22 33 -57 39 -77 7 -20 18 -42 26 -48 8 -6 21 -35 31 -63 9 -29 23 -62 31 -75 8 -13 25 -53 38 -90 13 -37 40 -112 60 -167 20 -55 47 -136 60 -180 13 -44 30 -98 38 -120 8 -22 19 -70 26 -107 6 -36 18 -86 27 -110 8 -23 22 -83 30 -133 8 -49 23 -121 34 -160 11 -38 29 -151 40 -250 11 -99 24 -205 29 -235 6 -30 15 -171 21 -313 14 -316 0 -772 -29 -972 -11 -71 -23 -168 -26 -215 -4 -47 -14 -114 -22 -150 -8 -36 -25 -121 -38 -190 -24 -130 -87 -389 -100 -410 -7 -11 -16 -43 -80 -290 -14 -57 -33 -116 -40 -130 -7 -14 -21 -55 -30 -90 -9 -36 -25 -78 -35 -95 -10 -16 -26 -56 -35 -87 -9 -32 -20 -60 -25 -63 -5 -3 -18 -34 -30 -69 -12 -36 -27 -70 -35 -76 -8 -6 -19 -28 -26 -48 -6 -20 -20 -48 -29 -62 -10 -14 -29 -47 -44 -75 -15 -27 -42 -75 -61 -105 -19 -30 -44 -73 -55 -95 -52 -103 -310 -429 -440 -555 -52 -50 -188 -174 -266 -241 -153 -133 -430 -333 -515 -374 -19 -8 -45 -22 -59 -29 -14 -8 -54 -28 -90 -44 -134 -61 -246 -114 -290 -136 -25 -13 -63 -29 -85 -36 -22 -7 -53 -20 -70 -30 -16 -10 -50 -24 -75 -30 -25 -7 -61 -20 -80 -30 -19 -9 -60 -23 -90 -30 -30 -7 -73 -21 -96 -32 -23 -10 -77 -25 -120 -34 -44 -9 -91 -23 -106 -30 -15 -8 -78 -23 -140 -33 -62 -11 -132 -26 -154 -34 -23 -9 -90 -20 -148 -26 -59 -6 -135 -18 -168 -27 -55 -14 -234 -39 -568 -79 -93 -11 -413 -14 -1685 -15 -2005 -2 -3013 -13 -3190 -33 -85 -10 -323 -19 -685 -27 -717 -14 -1161 -28 -1280 -39 -121 -12 -345 -18 -1270 -36 -845 -17 -969 -27 -868 -70 81 -33 155 -41 553 -55 143 -5 346 -19 451 -30 104 -11 318 -27 475 -35 156 -8 388 -24 514 -35 127 -11 388 -27 580 -35 193 -9 415 -22 495 -30 80 -8 334 -19 565 -25 391 -10 427 -13 529 -36 121 -28 8 -24 1691 -54 352 -6 1480 -9 2730 -7 1876 3 2147 5 2270 19 77 9 208 19 290 23 83 4 211 15 285 26 74 10 208 26 298 34 89 8 193 22 230 29 37 8 126 22 197 30 72 9 168 25 215 36 47 11 135 26 195 34 117 15 440 79 490 97 17 6 71 18 120 28 99 20 252 62 330 91 74 28 201 69 275 89 36 10 80 26 99 35 18 10 58 24 88 32 30 8 78 25 107 39 29 14 59 25 67 25 8 0 41 13 74 30 33 16 67 30 75 30 9 0 42 13 75 30 33 16 64 30 69 30 10 0 149 60 221 95 28 13 70 33 95 44 25 11 52 25 60 30 8 5 90 47 182 93 92 46 198 100 235 120 37 20 79 42 93 49 37 20 121 75 155 102 17 13 40 29 52 36 46 24 362 267 482 371 188 162 672 657 721 738 10 16 22 31 27 33 5 2 25 26 44 53 19 27 46 65 61 85 38 50 118 169 148 220 14 23 36 59 49 79 14 20 35 57 49 82 13 25 39 72 57 105 19 33 41 76 50 95 8 19 26 58 39 85 199 414 327 834 361 1185 8 80 19 170 25 200 30 154 31 866 1 1045 -5 28 -20 123 -35 212 -14 90 -32 179 -40 198 -8 19 -20 72 -27 117 -6 46 -20 103 -29 128 -10 25 -23 72 -30 105 -7 33 -23 81 -36 107 -13 26 -24 54 -24 61 0 8 -13 41 -30 73 -16 32 -36 75 -44 94 -8 19 -22 46 -30 60 -8 14 -24 43 -34 65 -11 22 -34 65 -51 95 -17 30 -44 80 -61 110 -17 30 -46 80 -65 110 -19 30 -46 75 -60 100 -14 25 -35 59 -47 75 -13 17 -40 55 -62 85 -50 69 -146 181 -207 240 -25 25 -79 83 -120 130 -105 120 -263 264 -404 370 -26 19 -109 87 -184 150 -75 63 -161 131 -191 151 -30 20 -68 44 -84 55 -36 24 -104 66 -208 128 -137 82 -207 124 -313 192 -60 38 -221 120 -395 201 -41 19 -97 45 -125 59 -73 34 -206 91 -235 99 -14 4 -38 15 -55 25 -16 9 -52 23 -80 29 -27 7 -59 18 -71 26 -11 7 -49 22 -85 33 -35 12 -82 30 -104 41 -21 12 -48 21 -58 21 -10 0 -52 13 -92 29 -40 16 -98 34 -129 40 -30 6 -68 17 -83 24 -16 8 -64 22 -108 32 -44 9 -100 25 -125 35 -25 10 -74 24 -109 30 -36 6 -92 22 -126 35 -33 12 -81 26 -105 30 -25 4 -67 16 -95 26 -44 16 -95 30 -305 83 -30 7 -77 18 -105 23 -27 6 -86 20 -130 31 -168 44 -354 82 -446 92 -53 5 -116 17 -140 25 -40 15 -124 25 -331 41 -167 13 -235 102 -90 119 31 4 90 15 129 25 40 11 118 24 174 30 56 6 125 20 153 31 28 12 100 27 160 35 60 8 132 21 160 29 28 7 90 21 137 30 47 8 112 24 144 35 32 11 88 25 124 31 36 7 88 20 115 31 27 10 77 25 110 33 34 8 97 26 141 41 144 47 164 54 213 69 26 9 67 23 92 31 25 9 84 27 132 40 49 13 97 28 108 34 18 9 84 33 235 85 28 9 77 30 109 46 32 16 66 29 75 29 9 0 35 11 58 24 23 13 59 30 80 36 21 7 49 20 63 30 14 9 47 24 74 33 27 10 56 23 65 30 9 8 36 22 60 31 25 10 56 25 70 35 14 10 41 23 59 29 18 6 45 20 60 30 15 10 43 25 62 32 19 7 42 19 50 26 9 7 36 22 61 33 25 11 57 29 71 41 14 11 36 24 49 30 64 28 329 213 489 339 242 192 570 523 726 732 10 15 67 90 126 167 58 77 112 151 118 164 7 13 21 32 30 43 23 25 213 399 230 451 7 21 17 44 21 50 5 6 20 42 33 80 13 38 31 83 40 99 9 17 16 38 16 48 0 10 13 51 29 91 16 40 36 112 45 159 9 47 23 104 31 127 8 22 21 91 29 153 8 62 22 139 30 172 25 102 36 290 36 637 0 339 -10 510 -35 608 -8 30 -21 105 -29 165 -8 61 -26 146 -40 190 -13 44 -31 107 -39 140 -26 102 -63 218 -81 254 -10 19 -26 62 -36 95 -29 99 -63 180 -160 376 -68 138 -96 190 -119 220 -10 14 -28 43 -40 65 -29 54 -115 184 -176 265 -11 15 -37 52 -57 81 -21 30 -54 74 -73 99 -19 25 -47 63 -61 85 -62 93 -554 562 -718 685 -26 19 -65 49 -86 65 -65 49 -112 84 -169 123 -29 20 -67 49 -85 63 -41 34 -176 127 -231 159 -157 91 -255 144 -448 243 -95 48 -183 94 -197 102 -84 48 -396 181 -503 215 -32 10 -64 23 -70 28 -7 6 -41 19 -77 30 -36 12 -87 30 -115 41 -123 49 -429 143 -640 196 -55 14 -129 34 -165 45 -36 11 -100 25 -142 31 -43 5 -103 19 -134 30 -32 10 -98 24 -148 30 -50 6 -145 21 -211 34 -66 13 -185 29 -265 35 -80 6 -203 22 -275 35 -71 13 -197 29 -280 35 -82 5 -217 20 -300 32 -150 23 -150 23 -3285 23 -1724 0 -3972 -3 -4995 -6z"/>
<path d="M17445 20573 c-135 -11 -245 -27 -299 -43 -33 -10 -81 -21 -106 -25 -25 -4 -75 -20 -112 -36 -36 -16 -72 -29 -80 -29 -7 0 -26 -8 -43 -17 -35 -19 -147 -78 -190 -101 -114 -59 -363 -286 -497 -452 -112 -139 -218 -402 -265 -655 -28 -150 -28 -150 -26 -3215 2 -1686 7 -3308 13 -3605 5 -297 14 -1127 19 -1845 6 -718 15 -1489 21 -1715 6 -225 15 -877 21 -1448 9 -824 9 -1040 -1 -1052 -17 -20 -52 -19 -81 3 -46 35 -160 92 -207 103 -26 7 -60 19 -76 27 -26 12 -75 26 -296 82 -19 5 -110 14 -202 21 -186 12 -432 0 -529 -26 -30 -8 -94 -24 -142 -35 -49 -11 -105 -29 -125 -39 -21 -10 -57 -24 -82 -31 -25 -6 -63 -22 -85 -35 -22 -12 -51 -26 -65 -30 -41 -13 -165 -98 -279 -193 -117 -96 -211 -184 -235 -218 -77 -113 -114 -173 -126 -204 -7 -19 -21 -47 -31 -61 -10 -14 -21 -38 -25 -55 -4 -16 -20 -55 -35 -86 -16 -32 -29 -64 -29 -71 0 -8 -12 -32 -27 -53 -14 -21 -29 -53 -33 -71 -18 -78 53 -612 94 -712 13 -31 27 -72 31 -91 4 -19 15 -46 25 -60 9 -14 22 -40 28 -58 12 -34 25 -57 114 -195 113 -176 307 -361 538 -510 82 -54 307 -162 370 -178 25 -6 62 -20 82 -30 20 -10 83 -25 140 -33 57 -8 130 -22 163 -30 89 -24 343 -21 463 4 50 11 127 24 170 29 42 5 97 19 122 30 25 11 68 25 95 31 80 18 251 99 355 168 81 54 258 207 314 271 27 31 52 58 56 61 37 24 203 345 216 416 4 21 17 67 30 101 57 152 78 587 50 1028 -12 183 -20 538 -27 1195 -5 514 -16 1077 -24 1250 -21 475 -34 1050 -46 2035 -5 490 -15 1007 -20 1150 -13 356 -26 6456 -14 6475 11 18 28 10 84 -38 80 -67 121 -96 161 -112 19 -7 49 -21 65 -31 17 -9 59 -25 94 -34 35 -9 73 -22 85 -30 11 -7 68 -20 126 -29 58 -8 137 -22 175 -31 46 -11 144 -18 290 -22 211 -5 224 -4 325 20 58 14 132 28 165 32 33 4 87 17 120 30 33 13 80 29 104 35 45 12 66 21 216 97 140 70 224 131 339 246 101 102 146 154 229 264 40 53 97 146 97 157 0 5 13 36 29 70 77 161 102 293 104 561 1 214 -10 305 -54 445 -29 92 -122 291 -184 395 -140 233 -341 427 -615 593 -58 35 -217 112 -231 112 -8 0 -37 11 -66 24 -28 14 -89 32 -135 41 -46 9 -114 25 -153 35 -114 30 -302 45 -440 33z"/>
<path d="M4240 18621 c-94 -21 -223 -115 -235 -173 -4 -15 -2 -43 5 -62 15 -46 98 -122 146 -135 50 -13 8401 -27 10017 -16 1039 7 1150 9 1167 24 17 14 19 33 22 173 3 138 1 159 -14 174 -16 17 -331 18 -5545 20 -3040 2 -5544 0 -5563 -5z"/>
<path d="M19702 18589 c-23 -24 -32 -62 -32 -130 0 -27 -9 -72 -20 -101 -27 -70 -26 -104 3 -120 33 -19 5821 -26 5844 -7 21 18 13 91 -19 160 -14 29 -33 79 -42 110 -13 45 -23 61 -54 83 -38 26 -38 26 -2850 26 -2811 0 -2811 0 -2830 -21z"/>
<path d="M30382 18558 c-19 -19 -14 -52 14 -94 15 -21 35 -62 44 -90 36 -103 70 -164 97 -170 37 -10 1918 4 2168 15 116 6 509 15 875 20 989 16 1694 31 1885 41 94 5 492 14 885 20 914 13 1197 26 1153 53 -20 13 -197 27 -495 42 -167 8 -397 19 -513 24 -115 6 -433 15 -705 21 -272 6 -648 20 -835 31 -187 10 -576 24 -865 29 -631 12 -1125 27 -1315 41 -146 10 -1358 27 -2005 28 -280 1 -379 -2 -388 -11z"/>
<path d="M3541 15384 c-82 -17 -148 -57 -195 -118 -56 -74 -16 -175 85 -212 40 -15 456 -16 4814 -16 5462 0 7068 6 7103 28 21 14 22 21 22 138 0 104 -3 127 -17 144 -18 19 -42 20 -1498 31 -814 7 -3451 14 -5860 16 -3898 4 -4388 3 -4454 -11z"/>
<path d="M16954 15374 c-43 -10 -51 -32 -57 -167 -10 -195 -98 -173 734 -181 382 -3 2062 -9 3734 -12 3106 -6 4059 1 4140 28 46 15 65 45 65 104 0 23 9 70 20 104 26 80 25 96 -2 112 -19 10 -872 13 -4318 14 -2362 1 -4305 0 -4316 -2z"/>
<path d="M30543 15345 c-23 -16 -38 -54 -47 -123 -4 -24 -20 -68 -36 -99 -34 -63 -39 -108 -12 -121 22 -11 2837 4 3312 17 328 9 1023 24 2475 51 314 6 674 15 800 20 127 5 428 14 670 20 582 14 797 29 758 53 -17 11 -256 26 -508 32 -137 4 -340 13 -450 21 -110 7 -567 20 -1015 28 -752 14 -994 21 -1640 46 -129 5 -505 14 -835 19 -330 6 -751 15 -935 21 -521 16 -1485 30 -2025 30 -420 0 -494 -2 -512 -15z"/>
<path d="M13520 13296 c-30 -7 -102 -23 -159 -35 -57 -12 -120 -30 -140 -40 -20 -10 -58 -24 -86 -30 -27 -7 -66 -21 -85 -31 -19 -10 -55 -28 -80 -39 -62 -27 -122 -64 -304 -187 -53 -36 -198 -197 -253 -280 -29 -44 -61 -91 -73 -106 -11 -15 -26 -42 -32 -60 -6 -18 -19 -44 -28 -58 -10 -14 -21 -36 -25 -50 -4 -14 -20 -59 -35 -100 -16 -41 -42 -133 -59 -205 -26 -114 -31 -155 -36 -335 -3 -113 -8 -1890 -10 -3950 -3 -2060 -10 -3900 -15 -4090 -5 -190 -10 -435 -10 -545 0 -265 -9 -280 -126 -210 -33 19 -81 46 -109 60 -27 14 -61 32 -75 40 -43 24 -176 85 -185 85 -5 0 -28 10 -52 21 -102 49 -286 96 -504 129 -149 22 -428 27 -509 9 -25 -5 -88 -17 -140 -25 -52 -9 -120 -25 -150 -36 -30 -10 -87 -28 -126 -38 -39 -10 -87 -28 -105 -39 -19 -12 -41 -21 -49 -21 -8 0 -58 -23 -110 -50 -52 -27 -115 -59 -140 -71 -25 -12 -59 -33 -76 -45 -17 -13 -35 -24 -39 -24 -15 0 -149 -105 -198 -156 -80 -81 -258 -320 -272 -364 -4 -14 -18 -43 -30 -65 -28 -49 -81 -204 -95 -276 -34 -177 -29 -469 10 -602 22 -76 61 -168 92 -219 73 -122 90 -147 120 -187 41 -54 230 -245 283 -286 21 -16 52 -42 69 -56 128 -107 452 -268 599 -299 32 -6 77 -20 100 -30 23 -10 80 -23 127 -30 47 -6 123 -21 170 -32 71 -18 118 -21 280 -22 187 0 203 1 385 38 105 21 210 46 235 56 25 10 72 27 105 38 98 32 178 65 205 82 14 9 45 25 70 34 25 10 52 24 60 31 8 7 29 20 47 29 65 33 240 173 339 271 160 159 242 283 339 515 63 151 104 330 116 506 5 76 11 662 14 1303 2 641 9 1315 14 1496 6 182 13 1097 17 2035 4 938 9 2164 13 2724 6 943 7 1020 23 1030 22 13 63 -7 138 -69 30 -25 73 -54 95 -65 22 -10 51 -26 65 -34 42 -25 183 -84 220 -91 19 -4 55 -16 80 -27 26 -11 98 -25 175 -34 72 -8 164 -18 205 -23 104 -13 510 22 558 48 10 5 56 21 102 34 154 45 296 111 408 188 31 22 73 50 92 63 99 67 325 324 400 455 9 14 28 47 43 72 15 25 27 52 27 59 0 7 11 37 25 66 14 29 32 86 40 126 9 40 23 96 32 123 24 76 30 426 9 520 -33 146 -63 251 -79 275 -8 14 -20 44 -27 67 -10 41 -33 84 -109 203 -71 113 -351 415 -441 476 -42 29 -96 67 -130 91 -29 21 -211 113 -223 113 -4 0 -20 8 -34 18 -44 29 -195 78 -378 123 -77 19 -122 23 -320 25 -166 2 -245 0 -285 -10z"/>
<path d="M1849 12079 c-64 -25 -83 -38 -118 -82 -39 -47 -43 -56 -38 -95 6 -52 59 -114 122 -143 39 -17 228 -18 4930 -25 4636 -7 4892 -6 4927 10 39 19 58 54 58 109 0 17 5 68 12 114 11 73 10 85 -4 99 -15 15 -156 17 -1505 20 -818 3 -2827 9 -4463 14 -1636 6 -3171 10 -3410 9 -435 0 -435 0 -511 -30z"/>
<path d="M27593 12051 c-73 -5 -85 -9 -113 -36 -26 -25 -31 -36 -27 -65 6 -47 49 -156 69 -176 17 -17 120 -30 418 -55 202 -16 4856 -25 5495 -10 253 6 811 15 1240 21 1905 24 2447 33 2545 40 120 9 1017 35 1715 50 456 10 535 14 535 30 0 26 -684 67 -1353 80 -783 15 -1334 30 -1522 40 -159 9 -426 14 -2075 40 -355 6 -728 15 -830 21 -352 18 -1793 28 -3900 27 -1163 -1 -2152 -4 -2197 -7z"/>
<path d="M628 8811 c-76 -16 -178 -113 -178 -170 0 -14 15 -50 33 -80 27 -45 44 -60 99 -89 l66 -35 5499 -1 c4648 -1 5502 1 5516 13 15 11 17 37 17 172 0 159 0 159 -27 176 -26 17 -279 18 -5508 20 -3014 1 -5497 -2 -5517 -6z"/>
<path d="M17400 8811 c-212 -3 -391 -10 -398 -14 -28 -18 -34 -62 -26 -200 6 -130 8 -139 30 -154 21 -13 513 -15 4514 -20 4093 -4 4494 -3 4516 12 31 20 31 38 -5 210 -20 98 -34 142 -47 152 -15 11 -362 13 -1928 13 -1051 0 -2892 2 -4091 4 -1199 2 -2353 0 -2565 -3z"/>
<path d="M31310 8793 c-82 -3 -97 -6 -112 -24 -25 -30 -22 -63 11 -128 16 -31 32 -72 35 -91 14 -70 27 -99 52 -115 23 -14 109 -16 932 -15 1368 1 3327 32 3817 60 105 6 402 15 660 20 685 14 1257 29 1281 35 12 2 234 9 495 15 431 9 636 21 662 37 37 23 -126 37 -628 53 -176 6 -426 15 -555 20 -129 6 -608 17 -1065 25 -456 8 -918 19 -1025 25 -401 20 -720 30 -1230 40 -289 6 -709 18 -935 27 -378 14 -2117 26 -2395 16z"/>
<path d="M13470 8710 c-241 -5 -265 -10 -276 -56 -11 -42 2 -116 22 -132 26 -19 2251 -12 2302 7 40 16 52 37 52 94 0 79 0 79 -313 88 -297 8 -1427 8 -1787 -1z"/>
<path d="M4135 5560 c-55 -8 -131 -55 -166 -103 -23 -31 -29 -51 -29 -89 0 -43 5 -53 42 -94 23 -25 59 -54 80 -65 36 -19 112 -19 3788 -19 3626 0 3751 1 3768 18 16 16 20 42 25 167 8 162 6 171 -47 180 -41 7 -7409 12 -7461 5z"/>
<path d="M17418 5550 c-335 -6 -333 -5 -331 -77 1 -21 3 -87 5 -146 2 -89 6 -111 20 -121 30 -22 752 -26 4846 -26 2714 -1 3898 3 3912 10 28 15 38 38 56 127 8 43 22 100 31 126 21 67 12 94 -35 106 -38 10 -7928 11 -8504 1z"/>
<path d="M31253 5504 c-37 -19 -41 -27 -59 -123 -7 -44 -22 -86 -34 -100 -36 -45 -42 -71 -25 -98 16 -23 20 -24 93 -19 42 3 493 8 1002 11 1251 8 2062 21 2630 45 261 10 666 22 900 25 506 7 998 21 1205 35 83 5 227 14 320 20 190 12 301 28 288 41 -19 19 -219 30 -718 39 -286 5 -577 14 -646 19 -201 16 -609 30 -1209 41 -305 6 -645 17 -755 25 -294 21 -786 34 -1725 45 -1161 13 -1228 13 -1267 -6z"/>
</g>
</g>
</svg>